<svg width="52" height="58" viewBox="0 0 52 58" fill="none" xmlns="http://www.w3.org/2000/svg">
<path d="M2.36448 3.27659V52.7608H2.64117C10.9546 52.7608 19.2617 52.7608 27.5751 52.7608C27.8266 52.7608 27.9461 52.8425 28.0907 53.0501C28.5435 53.7166 29.034 54.3581 29.5119 55.0121C29.5308 55.0372 29.5497 55.0687 29.5874 55.119H0V0.912109H44.8999V32.3295C44.51 32.2226 44.1327 32.1094 43.7428 32.015C43.4095 31.9333 43.0699 31.8641 42.7304 31.8075C42.5606 31.7761 42.5417 31.688 42.5417 31.5434C42.5417 27.5565 42.5417 23.5759 42.5417 19.589C42.5417 14.2374 42.5417 8.89222 42.5417 3.5407V3.27659H2.36448Z" fill="#373737"/>
<path d="M40.2211 33.9023C46.7611 33.9464 52.0372 39.2287 51.9995 45.7373C51.9554 52.6484 46.2329 57.6917 39.8061 57.4905C33.5993 57.2956 28.1472 52.139 28.3673 45.3097C28.5748 38.864 33.9137 33.9275 40.2211 33.9086V33.9023ZM30.7255 45.6996C30.7255 50.8939 35.0079 55.1826 40.284 55.126C45.3902 55.0757 49.6853 50.8813 49.6413 45.599C49.5973 40.4927 45.3525 36.2542 40.1771 36.2668C34.9451 36.2794 30.7255 40.5682 30.7255 45.6996Z" fill="#373737"/>
<path d="M8.27637 13.841V11.5205H36.6249V13.841H8.27637Z" fill="#373737"/>
<path d="M16.5449 30.3614V28.0283H36.6241V30.3614H16.5449Z" fill="#373737"/>
<path d="M16.5518 37.4544V35.1025H30.7512C30.7198 35.1466 30.7072 35.1843 30.6757 35.2157C29.9966 35.8509 29.3551 36.5237 28.8143 37.2846C28.6886 37.467 28.5251 37.4607 28.3364 37.4607C27.3114 37.4544 26.2801 37.4607 25.255 37.4607C22.507 37.4607 19.7526 37.4607 17.0045 37.4607C16.8599 37.4607 16.7153 37.4607 16.558 37.4607L16.5518 37.4544Z" fill="#373737"/>
<path d="M26.4121 42.1758C26.2989 42.9304 26.1857 43.6599 26.0663 44.383C26.06 44.4333 25.9594 44.5088 25.9028 44.5088C23.0478 44.5088 20.1928 44.5025 17.3378 44.4962C17.08 44.4962 16.8222 44.4962 16.5518 44.4962V42.1758H26.4121Z" fill="#373737"/>
<path d="M12.986 28.0215V30.3608H8.28223V28.0215H12.986Z" fill="#373737"/>
<path d="M12.986 37.4481H8.28223V35.1025H12.986V37.4481Z" fill="#373737"/>
<path d="M8.27637 44.5025V42.1758H12.9802V44.5025H8.27637Z" fill="#373737"/>
<path d="M39.0011 46.8814C37.9383 46.8814 36.907 46.8814 35.8757 46.8814C35.36 46.8814 34.8507 46.894 34.335 46.8814C33.8068 46.8688 33.4106 46.5607 33.2597 46.0827C33.1025 45.5734 33.2597 45.0451 33.6684 44.737C33.9011 44.5609 34.1652 44.5232 34.4482 44.5232C35.8883 44.5232 37.3346 44.5169 38.7747 44.5232C38.9634 44.5232 39.0074 44.4729 39.0074 44.2842C39.0011 42.8253 39.0074 41.3727 39.0074 39.9137C39.0074 39.3918 39.2778 38.983 39.718 38.8195C40.2399 38.6309 40.7933 38.7566 41.1203 39.1528C41.3027 39.3729 41.3719 39.637 41.3719 39.92C41.3719 41.3601 41.3719 42.8064 41.3719 44.2465V44.498C41.4536 44.498 41.5228 44.5106 41.5857 44.5106C42.944 44.5106 44.3023 44.5106 45.6606 44.5106C45.8052 44.5106 45.9562 44.5106 46.1008 44.5169C46.6353 44.5609 47.0126 44.8816 47.1321 45.391C47.2516 45.9067 47.0629 46.46 46.6165 46.6864C46.3775 46.8059 46.0819 46.8625 45.8115 46.8688C44.4469 46.8877 43.0823 46.8751 41.7177 46.8751C41.6108 46.8751 41.5102 46.8751 41.3656 46.8751V47.1329C41.3656 48.5856 41.3656 50.0319 41.3656 51.4846C41.3656 52.0065 41.1014 52.3901 40.6424 52.5662C40.1959 52.7423 39.6362 52.6291 39.3155 52.2895C39.0954 52.0568 39.0074 51.7801 39.0074 51.4657C39.0074 50.0256 39.0074 48.5793 39.0074 47.1392V46.8688L39.0011 46.8814Z" fill="#373737"/>
</svg>
