<svg width="48" height="61" viewBox="0 0 48 61" fill="none" xmlns="http://www.w3.org/2000/svg">
<path d="M6.00396 50.7668C4.4017 50.7668 3.16779 49.7633 2.86698 48.2234C2.82401 48.0151 2.83015 47.7943 2.83015 47.5797C2.83015 41.0035 2.82401 34.4273 2.81787 27.8511C2.81787 27.6365 2.81787 27.4219 2.81173 27.2073C2.69509 27.1442 2.67668 27.0874 2.81173 27.0306C2.81173 26.7908 2.83015 26.5447 2.83015 26.3048C2.83015 19.5961 2.86084 12.8873 2.81173 6.17229C2.79945 4.67024 4.05179 2.81477 5.94871 2.86526C6.99232 2.8905 8.04207 2.87788 9.08568 2.90312C9.55837 2.91575 10.0249 2.8337 10.4915 2.8337C18.3615 2.8337 26.2377 2.81477 34.1078 2.8337C34.8506 2.8337 35.6241 2.8337 36.2932 3.2881C37.3062 3.9634 37.7482 4.88482 37.7727 6.15336C37.9078 12.7548 37.8096 19.35 37.828 25.9514C37.8341 28.7535 37.828 31.5557 37.828 34.3578C38.7734 34.4273 39.6942 34.585 40.5782 34.8312C40.5782 32.1174 40.5782 29.4036 40.5782 26.6898C40.5782 19.8422 40.5782 13.0009 40.5782 6.15336C40.5782 5.26349 40.4493 4.40517 40.0809 3.61628C39.0066 1.27485 37.1281 0.0378668 34.648 0.0252446C25.1205 -0.0189334 15.599 0.0126223 6.07148 0C4.7639 0 3.58523 0.384979 2.50479 1.136C1.4182 1.89965 0.644703 2.90312 0.282508 4.22846C0.0860635 4.94162 0.0185357 5.67371 0.0185357 6.41212C0.0185357 20.1325 0.0123968 33.8466 0.0123968 47.5671C0.0123968 47.9773 -0.0428532 48.4569 0.0799246 48.7788C0.276369 49.3026 0.356175 49.8643 0.669258 50.3755C1.8909 52.414 3.60979 53.5689 5.93643 53.5753C11.5719 53.5942 17.2136 53.5942 22.8491 53.5942C22.5851 52.6917 22.4071 51.745 22.315 50.7605C16.8821 50.7605 11.443 50.7605 6.01009 50.7605L6.00396 50.7668Z" fill="#373737"/>
<path d="M6.9861 12.5969C11.4368 12.5969 15.8814 12.5969 20.3321 12.5969C22.5666 12.5969 24.8073 12.5969 27.0419 12.5969C29.2641 12.5969 31.4926 12.5843 33.7148 12.6096C34.1323 12.6096 34.2428 12.4644 34.2121 12.0794C34.1875 11.7702 34.2121 11.4609 34.2121 11.1517C34.2121 10.5122 33.8929 10.1924 33.2544 10.1924C24.5433 10.1924 15.8322 10.1924 7.11502 10.1924C6.99838 10.1924 6.88174 10.1987 6.75896 10.1924C6.52568 10.1798 6.4336 10.2871 6.43974 10.5269C6.45202 11.0255 6.43974 11.5241 6.43974 12.0226C6.43974 12.4055 6.62186 12.5969 6.9861 12.5969Z" fill="#373737"/>
<path d="M34.2059 34.3892C34.2243 33.9979 34.0892 33.8906 33.7148 33.8906C30.5901 33.9032 27.4654 33.8969 24.3407 33.8969C21.216 33.8969 18.0913 33.8969 14.9666 33.8906C14.6289 33.8906 14.4939 33.9727 14.5184 34.3387C14.543 34.8625 14.5369 35.3864 14.5184 35.9102C14.5062 36.2257 14.6167 36.3267 14.9236 36.3204C16.0716 36.3078 17.2257 36.3204 18.3737 36.3204C22.1122 36.3204 25.8508 36.3204 29.5894 36.3204C31.0014 35.4937 32.5606 34.8941 34.1997 34.5785C34.1997 34.5154 34.1997 34.446 34.1997 34.3829L34.2059 34.3892Z" fill="#373737"/>
<path d="M24.3774 41.0034C21.2404 41.0034 18.1034 41.0034 14.9665 40.9971C14.6288 40.9971 14.4999 41.0854 14.5183 41.4452C14.549 41.969 14.5429 42.4928 14.5183 43.0166C14.506 43.3322 14.6104 43.4332 14.9173 43.4269C16.274 43.4142 17.6369 43.4269 18.9936 43.4269C20.4608 43.4269 21.928 43.4269 23.389 43.4269C23.7451 42.5749 24.1748 41.7607 24.672 41.0034C24.5677 41.0034 24.4695 41.0034 24.3651 41.0034H24.3774Z" fill="#373737"/>
<path d="M14.5185 28.5955C14.5185 28.9994 14.7211 29.2013 15.1262 29.2013C21.2713 29.2013 27.4163 29.2013 33.5613 29.2013C33.6534 29.2013 33.7455 29.195 33.8376 29.2013C34.0893 29.2203 34.1936 29.1067 34.1875 28.8479C34.1814 28.3367 34.1691 27.8255 34.1936 27.3143C34.2121 26.9167 34.0954 26.7842 33.6903 26.7842C30.5778 26.8031 27.4654 26.7968 24.353 26.7968C22.6955 26.7968 21.0319 26.7968 19.3744 26.7968C17.8826 26.7968 16.3909 26.8031 14.9052 26.7968C14.6167 26.7968 14.5062 26.8852 14.5185 27.1881C14.5369 27.6551 14.5185 28.1285 14.5185 28.6018V28.5955Z" fill="#373737"/>
<path d="M11.0807 27.1627C11.0869 26.885 10.9886 26.784 10.7185 26.7903C10.0678 26.8029 9.41093 26.7903 8.76021 26.7903C8.09721 26.7903 7.42807 26.7903 6.76507 26.7903C6.53793 26.7903 6.43357 26.866 6.43971 27.1122C6.45199 27.6865 6.45199 28.2671 6.43971 28.8414C6.43357 29.1065 6.53793 29.1949 6.78349 29.1949C8.10335 29.1949 9.41707 29.1949 10.7369 29.1949C10.9825 29.1949 11.0869 29.1128 11.0807 28.8414C11.0684 28.2797 11.0684 27.7117 11.0807 27.1501V27.1627Z" fill="#373737"/>
<path d="M10.7919 33.9033C9.43523 33.9033 8.0724 33.9033 6.7157 33.9033C6.51312 33.9033 6.43945 33.9917 6.43945 34.1936C6.43945 34.7995 6.44559 35.4054 6.43945 36.0049C6.43945 36.2574 6.53768 36.3331 6.76481 36.3268C7.43395 36.3205 8.09695 36.3268 8.76609 36.3268C9.43523 36.3268 10.0982 36.3268 10.7674 36.3268C10.97 36.3268 11.0866 36.2763 11.0805 36.0365C11.0682 35.418 11.0743 34.7995 11.0805 34.181C11.0805 33.9664 10.9884 33.9033 10.7981 33.9033H10.7919Z" fill="#373737"/>
<path d="M10.7122 41.0039C9.41692 41.0102 8.12161 41.0165 6.82631 41.0039C6.54392 41.0039 6.42728 41.086 6.43342 41.3889C6.45183 41.938 6.45183 42.4933 6.43342 43.0424C6.42114 43.358 6.55006 43.4337 6.82631 43.4211C7.46475 43.4021 8.10934 43.4211 8.74778 43.4211C9.40464 43.4211 10.0554 43.4148 10.7122 43.4211C10.9762 43.4211 11.0928 43.3517 11.0806 43.0613C11.0621 42.4996 11.0621 41.9316 11.0806 41.37C11.0867 41.0796 10.9701 41.0039 10.7122 41.0039Z" fill="#373737"/>
<path d="M36.5019 36.3271C42.8864 36.3713 48.0369 41.6727 48.0001 48.2047C47.9571 55.1407 42.3707 60.2022 36.0968 60.0002C30.0377 59.8046 24.7153 54.6294 24.9301 47.7756C25.1327 41.3066 30.3446 36.3524 36.5019 36.3335V36.3271ZM27.2322 48.1668C27.2322 53.3798 31.4128 57.684 36.5633 57.6272C41.5481 57.5768 45.741 53.3672 45.698 48.0659C45.655 42.9412 41.5113 38.6875 36.459 38.7001C31.3514 38.7128 27.2322 43.017 27.2322 48.1668Z" fill="#373737"/>
<path d="M35.3108 49.3531C34.2733 49.3531 33.2666 49.3531 32.2598 49.3531C31.7564 49.3531 31.2591 49.3657 30.7558 49.3531C30.2401 49.3405 29.8533 49.0312 29.706 48.5516C29.5525 48.0404 29.706 47.5102 30.105 47.201C30.3322 47.0243 30.59 46.9864 30.8663 46.9864C32.2721 46.9864 33.684 46.9801 35.0898 46.9864C35.274 46.9864 35.317 46.9359 35.317 46.7466C35.3108 45.2824 35.317 43.8245 35.317 42.3604C35.317 41.8365 35.5809 41.4263 36.0107 41.2622C36.5202 41.0729 37.0604 41.1991 37.3796 41.5967C37.5577 41.8176 37.6252 42.0827 37.6252 42.3667C37.6252 43.8119 37.6252 45.2635 37.6252 46.7087V46.9612C37.705 46.9612 37.7725 46.9738 37.8339 46.9738C39.1599 46.9738 40.4859 46.9738 41.8119 46.9738C41.9531 46.9738 42.1004 46.9738 42.2416 46.9801C42.7634 47.0243 43.1318 47.3462 43.2484 47.8574C43.365 48.3749 43.1809 48.9302 42.745 49.1574C42.5117 49.2774 42.2232 49.3342 41.9592 49.3405C40.6271 49.3594 39.295 49.3468 37.9628 49.3468C37.8585 49.3468 37.7602 49.3468 37.619 49.3468V49.6055C37.619 51.0634 37.619 52.515 37.619 53.9728C37.619 54.4967 37.3612 54.8817 36.9131 55.0584C36.4772 55.2351 35.9308 55.1215 35.6178 54.7807C35.4029 54.5472 35.317 54.2695 35.317 53.9539C35.317 52.5087 35.317 51.0571 35.317 49.6119V49.3405L35.3108 49.3531Z" fill="#373737"/>
</svg>
