<svg width="53" height="53" viewBox="0 0 53 53" fill="none" xmlns="http://www.w3.org/2000/svg">
<path d="M26.5 0C11.8883 0 0 11.8883 0 26.5C0 30.8398 1.14309 34.8937 2.99678 38.5104L0.124219 48.7973C-0.544844 51.1868 1.8178 53.5467 4.20791 52.8784L14.5 50.0058C18.1141 51.857 22.1632 53 26.5 53C41.1117 53 53 41.1117 53 26.5C53 11.8883 41.1117 0 26.5 0ZM26.5 3.975C38.9633 3.975 49.025 14.0367 49.025 26.5C49.025 38.9633 38.9633 49.025 26.5 49.025C22.5211 49.025 18.8047 47.9892 15.561 46.1809C15.103 45.9254 14.5625 45.8612 14.0574 46.0023L4.27002 48.7352L7.00283 38.9529C7.14401 38.4478 7.07982 37.9074 6.82427 37.4494C5.01334 34.2029 3.975 30.481 3.975 26.5C3.975 14.0367 14.0367 3.975 26.5 3.975ZM26.4689 11.8965C25.9423 11.9048 25.4404 12.1217 25.0736 12.4997C24.7067 12.8777 24.5049 13.3858 24.5125 13.9125V29.8125C24.5088 30.0759 24.5574 30.3373 24.6556 30.5817C24.7539 30.8261 24.8997 31.0486 25.0846 31.2362C25.2695 31.4237 25.4899 31.5726 25.7329 31.6743C25.9758 31.776 26.2366 31.8283 26.5 31.8283C26.7634 31.8283 27.0242 31.776 27.2671 31.6743C27.5101 31.5726 27.7305 31.4237 27.9154 31.2362C28.1003 31.0486 28.2461 30.8261 28.3444 30.5817C28.4426 30.3373 28.4912 30.0759 28.4875 29.8125V13.9125C28.4913 13.6465 28.4417 13.3824 28.3416 13.1359C28.2414 12.8894 28.0929 12.6656 27.9046 12.4776C27.7164 12.2896 27.4923 12.1413 27.2457 12.0415C26.9991 11.9417 26.735 11.8924 26.4689 11.8965ZM26.5 35.775C25.7972 35.775 25.1231 36.0542 24.6262 36.5512C24.1292 37.0481 23.85 37.7222 23.85 38.425C23.85 39.1278 24.1292 39.8019 24.6262 40.2988C25.1231 40.7958 25.7972 41.075 26.5 41.075C27.2028 41.075 27.8769 40.7958 28.3738 40.2988C28.8708 39.8019 29.15 39.1278 29.15 38.425C29.15 37.7222 28.8708 37.0481 28.3738 36.5512C27.8769 36.0542 27.2028 35.775 26.5 35.775Z" fill="#373737"/>
</svg>
