<svg width="2746" height="2535" viewBox="0 0 2746 2535" fill="none" xmlns="http://www.w3.org/2000/svg">
<rect x="2323.54" width="422.461" height="422.461" fill="#800202"/>
<rect x="1901.08" y="211.23" width="422.461" height="211.231" fill="#800202"/>
<rect x="1478.62" y="422.459" width="422.461" height="211.231" fill="#800202"/>
<rect x="2112.31" y="844.926" width="422.461" height="211.231" transform="rotate(-90 2112.31 844.926)" fill="#800202"/>
<rect x="1901.08" y="844.926" width="211.231" height="211.231" fill="#800202"/>
<rect x="1689.85" y="1056.16" width="211.231" height="633.692" fill="#800202"/>
<rect x="1267.38" y="633.688" width="211.231" height="211.231" fill="#800202"/>
<rect x="1056.15" y="844.926" width="211.231" height="211.231" fill="#800202"/>
<rect x="211.231" y="1056.16" width="1267.38" height="211.231" fill="#FF0101"/>
<rect x="422.461" y="844.926" width="633.692" height="211.231" fill="#FF0101"/>
<rect y="1267.38" width="1267.38" height="211.231" fill="#FF0101"/>
<rect y="1478.62" width="211.231" height="422.461" fill="#FF0101"/>
<rect x="211.231" y="1689.84" width="211.231" height="422.461" fill="#FF0101"/>
<rect x="422.461" y="1478.62" width="633.692" height="211.231" fill="#FF0101"/>
<rect x="422.461" y="1901.07" width="633.692" height="211.231" fill="#FF0101"/>
<rect x="633.692" y="1689.84" width="422.461" height="211.231" fill="#FF0101"/>
<rect x="211.231" y="1478.62" width="211.231" height="211.231" fill="white"/>
<rect x="1478.62" y="1901.07" width="211.231" height="211.231" fill="white"/>
<rect x="422.461" y="1689.84" width="211.231" height="211.231" fill="white"/>
<rect x="1689.85" y="2112.31" width="211.231" height="211.231" fill="white"/>
<rect x="1478.62" y="1267.38" width="211.231" height="633.692" fill="#FF0101"/>
<rect x="1478.62" y="1689.84" width="211.231" height="211.231" fill="#FF0101"/>
<rect x="1267.38" y="1478.62" width="211.231" height="844.923" fill="#FF0101"/>
<rect x="1478.62" y="2112.31" width="211.231" height="422.461" fill="#FF0101"/>
<rect x="1689.85" y="2323.54" width="633.692" height="211.231" fill="#FF0101"/>
<rect x="1689.85" y="1689.84" width="211.231" height="422.461" fill="#FF0101"/>
<rect x="1901.08" y="1267.38" width="422.461" height="1056.15" fill="#FF0101"/>
<rect x="2323.54" y="1478.62" width="211.231" height="844.923" fill="#FF0101"/>
</svg>
