<svg width="51" height="47" viewBox="0 0 51 47" fill="none" xmlns="http://www.w3.org/2000/svg">
<g clip-path="url(#clip0_22_4)">
<path d="M50.988 29.0879C50.988 29.3746 50.9757 29.6675 50.988 29.9542C51.0371 31.1377 50.8959 32.3091 50.7179 33.4804C50.5093 34.8287 50.1165 36.1281 49.5089 37.3483C48.8215 38.7209 47.993 40.0082 46.9681 41.1673C44.9306 43.4673 42.4573 45.1816 39.7385 46.5665C39.3457 46.7678 38.9345 46.9386 38.4927 46.9935C37.9096 47.0667 37.3818 46.8654 36.8663 46.6336C36.1176 46.3041 35.4302 45.8466 34.7306 45.4256C33.2945 44.5593 31.9504 43.5649 30.7475 42.3997C29.2685 40.9721 28.0042 39.3798 27.0898 37.5374C26.2674 35.8841 25.7764 34.1393 25.6107 32.2969C25.445 30.4789 25.5371 28.6547 25.5064 26.8306C25.5002 26.489 25.5493 26.1595 25.6107 25.824C25.801 24.7625 26.4454 24.128 27.4396 23.762C28.532 23.3593 29.6613 23.097 30.7905 22.8347C32.1959 22.5052 33.6013 22.1636 35.0374 21.9806C36.5717 21.7853 38.106 21.7182 39.6526 21.8219C41.1992 21.9256 42.7212 22.2063 44.2371 22.5052C45.7898 22.8164 47.3241 23.2007 48.8338 23.6888C49.1898 23.8047 49.5212 23.9572 49.8342 24.1707C50.5215 24.6344 50.7916 25.3298 50.9205 26.0985C50.9818 26.4463 51.0002 26.794 51.0002 27.1479C51.0002 27.7945 51.0002 28.4412 51.0002 29.0879H50.988Z" fill="#4ABFB4"/>
<path d="M23.6955 7.24145C30.1457 7.24145 36.5959 7.24145 43.0399 7.24145C43.8868 7.24145 44.7154 7.36957 45.4641 7.80272C46.4092 8.34568 46.9554 9.16318 47.1887 10.2125C47.2991 10.6945 47.3421 11.1764 47.3421 11.6706C47.3421 14.0011 47.3421 16.3315 47.3421 18.6681C47.3421 18.7291 47.3421 18.7962 47.3421 18.8572C47.3421 19.1989 47.3053 19.2111 46.9739 19.144C46.1085 18.967 45.2432 18.784 44.3656 18.6742C44.2489 18.662 44.1262 18.6254 44.0096 18.6315C43.8255 18.6315 43.758 18.5461 43.7457 18.3753C43.7273 18.1923 43.7027 18.0153 43.7027 17.8323C43.7027 16.7891 43.7027 15.7459 43.7027 14.7026C43.7027 14.544 43.6659 14.5013 43.4941 14.4708C41.7204 14.1414 40.5421 13.1958 40.1309 11.2801C40.045 10.8653 40.045 10.8653 39.6215 10.8653C28.9244 10.8653 18.2273 10.8653 7.53017 10.8653C7.34606 10.8653 7.29082 10.9019 7.254 11.091C7.0392 12.1708 6.59118 13.1165 5.63992 13.7631C5.09371 14.1414 4.47385 14.3244 3.82945 14.4464C3.67602 14.4769 3.62692 14.5257 3.63306 14.6843C3.63306 19.3575 3.63306 24.0368 3.63306 28.7099C3.63306 28.8868 3.68829 28.9661 3.86014 29.0088C4.14858 29.076 4.43089 29.1614 4.71934 29.2468C5.8179 29.5762 6.51754 30.3205 6.94714 31.3515C7.10057 31.7237 7.23559 32.1019 7.28468 32.5046C7.29082 32.5656 7.30923 32.5961 7.37674 32.59C7.43198 32.59 7.49335 32.59 7.54858 32.59C12.2374 32.59 16.9323 32.59 21.6211 32.59C21.9341 32.59 21.9464 32.59 22.0016 32.9011C22.0753 33.3038 22.1367 33.7064 22.2103 34.1091C22.3269 34.7252 22.5233 35.3231 22.732 35.9149C22.8118 36.1467 22.8056 36.1528 22.5724 36.1894C22.4681 36.2016 22.3576 36.2138 22.2533 36.2138C16.2081 36.2138 10.163 36.226 4.1179 36.2077C2.88432 36.2077 1.75508 35.8417 0.932699 34.8472C0.331255 34.1213 0.0121215 33.2794 0.00598436 32.3581C-0.000152824 25.385 -0.000152824 18.418 0.0121215 11.4449C0.0121215 10.5969 0.153277 9.74885 0.607428 8.99846C1.19046 8.02235 2.1049 7.54039 3.20346 7.35127C3.70671 7.26586 4.21609 7.23535 4.73162 7.23535C11.0529 7.23535 17.3742 7.23535 23.7017 7.23535L23.6955 7.24145Z" fill="#4ABFB4"/>
<path d="M23.7262 3.61773C17.3251 3.61773 10.9179 3.61773 4.51681 3.61773C4.01969 3.61773 3.52258 3.56893 3.04388 3.41031C2.30742 3.16628 1.87782 2.5257 1.90237 1.7082C1.92078 1.00662 2.47312 0.329439 3.16049 0.152518C3.59009 0.0427051 4.03811 0 4.48612 0C17.2699 0 30.0536 0 42.8374 0C43.3038 0 43.7702 0.0610073 44.2244 0.189123C44.8995 0.378245 45.4518 1.05543 45.4887 1.75091C45.5193 2.26337 45.1204 3.09917 44.4269 3.3554C43.985 3.52012 43.5309 3.61773 43.0583 3.61773C36.6143 3.61773 30.1764 3.61773 23.7323 3.61773H23.7262Z" fill="#4ABFB4"/>
<path d="M20.67 28.9601C20.3754 28.9601 20.0747 28.954 19.7801 28.9601C19.4548 28.9662 19.1848 28.8564 18.9638 28.6307C17.7303 27.38 16.9079 25.9098 16.5458 24.1894C16.1898 22.5178 16.4292 20.8889 17.049 19.3332C17.9205 17.1552 19.4303 15.5507 21.7133 14.8308C24.3645 13.995 26.6353 14.7149 28.5256 16.7038C29.0534 17.2589 29.5014 17.8751 29.8635 18.5523C29.9003 18.6194 29.9371 18.6865 29.9617 18.7536C30.023 18.9366 29.9432 19.0708 29.7591 19.1135C28.3476 19.4369 26.9299 19.7419 25.5306 20.1263C24.9414 20.291 24.3523 20.4679 23.8061 20.7363C22.7321 21.261 22.0877 22.1029 21.879 23.2742C21.8606 23.3719 21.8606 23.4756 21.8606 23.5732C21.8606 25.2997 21.8606 27.0323 21.8606 28.7588C21.8606 28.9174 21.8176 28.9601 21.6642 28.954C21.3389 28.9418 21.0075 28.954 20.6761 28.954L20.67 28.9601Z" fill="#4ABFB4"/>
<path d="M9.06452 19.9434C9.9851 19.9373 10.9486 20.8463 10.9118 21.7675C10.8689 22.8229 10.2244 23.4574 9.12589 23.5123C8.14394 23.5672 7.26019 22.6826 7.29701 21.6943C7.3277 20.7914 7.99665 19.9556 9.06452 19.9434Z" fill="#4ABFB4"/>
</g>
<defs>
<clipPath id="clip0_22_4">
<rect width="51" height="47" fill="white"/>
</clipPath>
</defs>
</svg>
