<svg width="50" height="63" viewBox="0 0 50 63" fill="none" xmlns="http://www.w3.org/2000/svg">
<path d="M40.9451 54.7014C38.5245 54.7228 36.1039 54.6561 33.6857 54.7252C33.4302 54.7324 33.3419 54.78 33.33 55.066C33.2082 58.5815 30.6897 61.7514 27.2904 62.6929C22.7237 63.9584 18.0042 61.1937 16.8918 56.5938C16.7629 56.0575 16.6531 55.5093 16.677 54.9516C16.6841 54.7633 16.6173 54.7276 16.4406 54.7228C13.7431 54.6609 11.0456 54.7085 8.34809 54.6966C6.52189 54.6895 4.69809 54.6966 2.87189 54.699C2.50426 54.699 2.13902 54.7276 1.77139 54.7324C1.07672 54.7419 0.534837 54.4487 0.200631 53.8457C-0.1288 53.2499 -0.0309235 52.666 0.336703 52.1106C1.40139 50.5019 2.52813 48.9288 3.51165 47.2724C4.92964 44.8818 6.04207 42.3507 6.52428 39.5836C6.62693 38.9973 6.67467 38.4062 6.67467 37.8127C6.67467 33.3582 6.64603 28.906 6.68422 24.4515C6.70809 21.6415 7.2834 18.9292 8.52235 16.3909C9.26715 14.8679 10.1695 13.4331 11.3416 12.189C13.0317 10.3919 15.0585 9.09057 17.3382 8.1682C18.1188 7.85121 18.9138 7.57712 19.7373 7.3936C19.9522 7.34594 20.0166 7.23868 20.0119 7.02418C19.9975 6.37113 20.0071 5.71809 20.0071 5.06504C20.0071 2.55534 21.7736 0.474643 24.2587 0.0623176C26.9419 -0.383375 29.6179 1.61628 29.9521 4.31189C30.0595 5.19136 29.9879 6.07083 30.007 6.95029C30.0165 7.3936 30.0094 7.38884 30.4486 7.50801C33.7167 8.40416 36.5001 10.0964 38.7584 12.6132C41.0024 15.1134 42.3583 18.0497 42.9861 21.3388C43.2368 22.6568 43.337 23.9843 43.337 25.3214C43.3418 29.4089 43.3609 33.4964 43.3299 37.5839C43.3132 39.6241 43.8025 41.5356 44.5617 43.4018C45.4425 45.5635 46.6075 47.5703 47.9347 49.4865C48.5602 50.3898 49.1641 51.3074 49.7371 52.2441C50.3339 53.2141 49.8708 54.351 48.7917 54.6513C48.5124 54.73 48.2236 54.7371 47.9347 54.73C45.7147 54.6656 43.4922 54.7133 41.2697 54.7038C41.1599 54.7038 41.0525 54.7038 40.9427 54.7038L40.9451 54.7014ZM24.9915 51.4147C26.2018 51.4147 27.4121 51.4147 28.6224 51.4147C34.039 51.4147 39.4531 51.4147 44.8696 51.4099C44.9627 51.4099 45.094 51.46 45.1441 51.3646C45.1943 51.2693 45.0725 51.1954 45.02 51.1168C43.5734 49.0051 42.301 46.8005 41.3485 44.4195C40.544 42.4103 40.0141 40.3439 40.0117 38.1655C40.0093 33.9397 40.0117 29.714 40.0117 25.4882C40.0117 23.51 39.7921 21.5628 39.1929 19.668C38.1568 16.3956 36.2256 13.8121 33.2655 12.0388C31.4298 10.9401 29.4198 10.3371 27.2928 10.1035C24.9557 9.84849 22.6449 9.95574 20.3604 10.5444C16.7414 11.4787 13.989 13.557 12.084 16.7555C10.6493 19.1651 10.0501 21.8107 10.0263 24.5826C9.98808 28.8965 10 33.2128 10.012 37.5267C10.0167 39.5979 9.64672 41.5951 8.95921 43.5424C8.00911 46.2261 6.65796 48.7 5.05139 51.0429C4.98216 51.1454 4.81744 51.2526 4.87712 51.3575C4.94396 51.4743 5.13016 51.4099 5.26384 51.4099C11.8405 51.4123 18.4172 51.4099 24.9915 51.4123V51.4147ZM25.0369 54.7181C23.5401 54.7181 22.041 54.7085 20.5442 54.7228C19.9999 54.7276 20.0095 54.749 20.0572 55.2901C20.3198 58.1811 23.3515 60.5764 26.7079 59.3847C28.7322 58.6673 29.7898 57.1253 30.0046 54.9993C30.0261 54.7776 29.9378 54.7371 29.7396 54.7324C28.1736 54.6823 26.6053 54.7014 25.0369 54.7204V54.7181ZM26.6745 5.7443C26.6745 5.7443 26.6673 5.7443 26.6649 5.7443C26.6649 5.4583 26.6817 5.16991 26.6626 4.8839C26.6053 4.03065 25.9583 3.38952 25.1348 3.35615C24.1894 3.31802 23.4995 3.85428 23.3754 4.75282C23.2942 5.35104 23.3587 5.95642 23.3372 6.55942C23.33 6.75962 23.3897 6.81206 23.5926 6.78822C24.4544 6.68336 25.3186 6.6047 26.1827 6.78822C26.2687 6.80729 26.3618 6.78822 26.4501 6.80491C26.6458 6.84066 26.6864 6.74771 26.6793 6.57372C26.6673 6.29725 26.6769 6.02077 26.6769 5.7443H26.6745Z" fill="#373737"/>
</svg>
