<svg width="41" height="53" viewBox="0 0 41 53" fill="none" xmlns="http://www.w3.org/2000/svg">
<g clip-path="url(#clip0_73_2)">
<path d="M40.9959 26.3982C40.9959 33.2612 40.9896 40.1235 40.9983 46.9866C41.0023 50.1547 38.9649 52.1957 36.2606 52.883C35.9339 52.966 35.5905 53.0003 35.2439 52.9995C25.4925 52.9939 15.7412 53.0115 5.99061 52.9836C3.64397 52.9764 1.90956 51.8317 0.673193 49.817C0.361523 49.3094 0.281425 48.7562 0.0799897 48.2382C-0.0445195 47.9165 0.0125802 47.4432 0.0125802 47.0385C0.0109941 33.4728 0.0149594 19.9071 0.0189246 6.34137C0.0189246 5.611 0.084748 4.88862 0.283011 4.1806C0.649401 2.87312 1.42818 1.88094 2.53449 1.12742C3.62335 0.384279 4.81213 0.00273179 6.13494 0.00353001C15.7539 0.010714 25.3728 -0.0204165 34.9917 0.0266783C37.5017 0.0386516 39.3948 1.25992 40.4947 3.57954C40.8659 4.36259 41.0007 5.2119 40.9991 6.08914C40.9912 12.8588 40.9943 19.6285 40.9951 26.3982H40.9959ZM2.83822 26.9082C2.8414 27.1206 2.84616 27.3337 2.84616 27.546C2.85012 34.0483 2.85329 40.5505 2.85805 47.0528C2.85805 47.2643 2.85488 47.4815 2.89612 47.6874C3.20065 49.2056 4.44178 50.1994 6.06277 50.2002C15.6928 50.2042 25.3228 50.2034 34.9529 50.1994C35.4295 50.1994 35.8998 50.1164 36.3304 49.8953C37.6627 49.2128 38.206 48.0825 38.206 46.6146C38.2044 39.6342 38.2345 32.653 38.2139 25.6726C38.1941 19.1464 38.2972 12.6209 38.16 6.09472C38.1338 4.84072 37.6865 3.92996 36.6635 3.26185C35.983 2.81724 35.2059 2.81325 34.454 2.81245C26.5021 2.80048 18.5502 2.81245 10.5982 2.81804C10.124 2.81804 9.65451 2.89786 9.17709 2.88509C8.12154 2.85636 7.0644 2.87232 6.00885 2.84438C4.09283 2.7941 2.8295 4.6276 2.8406 6.11228C2.88977 12.7471 2.86202 19.3826 2.86122 26.0174C2.86122 26.2569 2.85012 26.4955 2.84378 26.735C2.70103 26.7893 2.72244 26.8484 2.83902 26.9098L2.83822 26.9082Z" fill="#373737"/>
<path d="M2.84387 26.7334C2.84228 26.7917 2.8407 26.8499 2.83911 26.9082C2.72253 26.8467 2.70112 26.7877 2.84387 26.7334Z" fill="#272727"/>
<path d="M20.5323 12.4563C16.0397 12.4563 11.5478 12.4563 7.05519 12.4563C6.68774 12.4563 6.50375 12.2661 6.50323 11.8856C6.50323 11.3939 6.51116 10.9014 6.50164 10.4097C6.49688 10.1718 6.58888 10.064 6.826 10.0784C6.94416 10.0856 7.06391 10.0784 7.18287 10.0784C15.9826 10.0784 24.7823 10.0784 33.582 10.0784C34.2259 10.0784 34.5479 10.394 34.5479 11.0251C34.5479 11.3308 34.5289 11.6381 34.5527 11.9423C34.582 12.3254 34.4718 12.4723 34.0499 12.4683C31.804 12.4459 29.558 12.4579 27.3113 12.4579C25.0519 12.4579 22.7925 12.4579 20.5331 12.4579L20.5323 12.4563Z" fill="#373737"/>
<path d="M24.5832 33.5236C27.7388 33.5236 30.8951 33.53 34.0507 33.5156C34.4314 33.514 34.5686 33.621 34.5471 34.0065C34.5202 34.4839 34.5194 34.9644 34.5471 35.4409C34.5701 35.8337 34.4179 35.9263 34.0451 35.9255C28.8824 35.9143 23.7188 35.9175 18.556 35.9175C17.3942 35.9175 16.2316 35.9079 15.0698 35.9231C14.7581 35.9271 14.6495 35.8281 14.6622 35.5144C14.682 34.9971 14.6883 34.4767 14.6606 33.9602C14.6407 33.5995 14.7764 33.5156 15.1158 33.5164C18.2713 33.5276 21.4277 33.5228 24.5832 33.5228V33.5236Z" fill="#373737"/>
<path d="M24.6234 40.5463C27.7654 40.5463 30.9075 40.5519 34.0496 40.5391C34.4239 40.5375 34.5714 40.6365 34.5476 41.0284C34.5183 41.5049 34.5199 41.9862 34.5476 42.4628C34.5698 42.8539 34.4215 42.9497 34.0472 42.9489C29.0962 42.9369 24.1459 42.9409 19.1949 42.9409C17.8221 42.9409 16.4486 42.9329 15.0758 42.9465C14.7657 42.9497 14.6571 42.8539 14.6706 42.5394C14.692 42.0222 14.6975 41.5017 14.669 40.9853C14.6491 40.6269 14.7768 40.5391 15.1186 40.5399C18.2869 40.5519 21.4559 40.5471 24.6242 40.5471L24.6234 40.5463Z" fill="#373737"/>
<path d="M24.5975 26.5008C27.7403 26.5008 30.8832 26.5088 34.0261 26.4912C34.4385 26.4888 34.5558 26.6229 34.5352 27.0133C34.509 27.517 34.5217 28.023 34.5289 28.5283C34.532 28.7829 34.425 28.8963 34.1728 28.8787C34.0808 28.8723 33.988 28.8787 33.8952 28.8787C27.6888 28.8787 21.4824 28.8787 15.2759 28.8787C14.8694 28.8787 14.6656 28.6781 14.6645 28.2769C14.6645 27.8115 14.678 27.3461 14.6605 26.8816C14.6486 26.5838 14.7581 26.4928 15.0499 26.4944C16.5551 26.5056 18.0603 26.4992 19.5664 26.4992C21.2437 26.4992 22.9202 26.4992 24.5975 26.4992V26.5008Z" fill="#373737"/>
<path d="M8.84948 26.4962C9.5085 26.4962 10.1675 26.5058 10.8266 26.4914C11.1002 26.4859 11.1985 26.5816 11.1906 26.8586C11.1747 27.4158 11.1755 27.9729 11.1906 28.5301C11.1977 28.7943 11.0891 28.8773 10.8416 28.8765C9.51009 28.8709 8.17855 28.8709 6.84781 28.8765C6.59879 28.8773 6.49491 28.7879 6.50125 28.5253C6.51552 27.9554 6.51315 27.3838 6.50284 26.8139C6.49808 26.5681 6.60197 26.4906 6.83275 26.4938C7.50525 26.5026 8.17697 26.497 8.84948 26.4962Z" fill="#373737"/>
<path d="M8.85192 35.9165C8.17862 35.9165 7.50611 35.9101 6.83281 35.9197C6.60124 35.9229 6.49735 35.8479 6.50211 35.6012C6.51321 35.0033 6.50925 34.4055 6.50449 33.8084C6.5029 33.6081 6.57983 33.5226 6.78444 33.5234C8.15642 33.5274 9.52919 33.5274 10.9012 33.5234C11.0971 33.5234 11.1906 33.5905 11.1883 33.7996C11.1819 34.4103 11.1795 35.0217 11.189 35.6323C11.193 35.871 11.0741 35.9205 10.8702 35.9181C10.1969 35.9117 9.52443 35.9157 8.85113 35.9157L8.85192 35.9165Z" fill="#373737"/>
<path d="M8.83755 42.9394C8.19042 42.9394 7.54249 42.9282 6.89536 42.9441C6.61304 42.9513 6.48615 42.8755 6.49725 42.5666C6.51708 42.0222 6.51549 41.4754 6.49725 40.931C6.48694 40.6277 6.60907 40.5455 6.89298 40.5479C8.20073 40.5583 9.50926 40.5575 10.817 40.5479C11.0819 40.5463 11.1993 40.6213 11.1905 40.9079C11.1739 41.4658 11.1731 42.0254 11.1905 42.5834C11.1993 42.8707 11.0843 42.9473 10.8186 42.9418C10.158 42.9282 9.49737 42.937 8.83675 42.9378L8.83755 42.9394Z" fill="#373737"/>
</g>
<defs>
<clipPath id="clip0_73_2">
<rect width="41" height="53" fill="white"/>
</clipPath>
</defs>
</svg>
