<svg width="40" height="53" viewBox="0 0 40 53" fill="none" xmlns="http://www.w3.org/2000/svg">
<path d="M40 53C39.2917 52.4475 38.6417 51.939 37.9917 51.4326C36.1827 50.0273 34.3717 48.624 32.5626 47.2168C29.7937 45.0648 27.0249 42.9109 24.256 40.7549C22.9158 39.71 21.5756 38.663 20.2435 37.6081C20.0463 37.4519 19.9296 37.4419 19.7223 37.6061C16.6053 40.0463 13.4782 42.4725 10.3552 44.9047C7.00272 47.515 3.65027 50.1274 0.297817 52.7398C0.227387 52.7958 0.154945 52.8479 0.0362209 52.9339C0.0281719 52.7998 0.0181105 52.7157 0.0181105 52.6317C0.0120737 49.8471 0.00402455 47.0626 0.00402455 44.2781C0.00402455 31.7988 0.0080491 19.3215 0 6.8442C0 5.48697 0.22135 4.1958 0.935708 3.02474C1.94989 1.36123 3.39471 0.316286 5.36472 0.0720653C5.79334 0.0200181 6.23 0.00600544 6.66264 0.00600544C15.5066 0 24.3485 0.00400363 33.1925 0C34.2771 0 35.3516 0.0600544 36.3417 0.5525C38.2996 1.52538 39.4547 3.11282 39.843 5.24275C39.9537 5.8513 39.994 6.48187 39.994 7.10243C40.002 22.124 40 37.1436 40 52.1652C40 52.4215 40 52.6757 40 53ZM3.97223 44.6665C4.0648 44.6164 4.10907 44.6004 4.14529 44.5724C4.52762 44.2761 4.90794 43.9798 5.29027 43.6816C7.75329 41.7598 10.2183 39.8381 12.6814 37.9143C15.0699 36.0466 17.4565 34.173 19.841 32.2993C19.9497 32.2132 20.0141 32.2232 20.1187 32.3053C21.3543 33.2801 22.5938 34.253 23.8354 35.2219C27.5742 38.1385 31.313 41.0532 35.0518 43.9678C35.3516 44.2 35.6575 44.4262 35.9956 44.6805C35.9956 44.2861 35.9956 43.9418 35.9956 43.5975C35.9956 31.3023 35.9956 19.0092 35.9936 6.71408C35.9936 6.44984 35.9875 6.1816 35.9533 5.91936C35.8527 5.14666 35.1947 4.418 34.426 4.3039C33.9109 4.22783 33.3796 4.23984 32.8544 4.23984C24.596 4.23584 16.3377 4.23584 8.07928 4.23584C7.35285 4.23584 6.62642 4.25786 5.89999 4.24184C5.04075 4.21982 4.15736 4.95048 4.02857 5.87532C3.96016 6.37377 3.97626 6.88624 3.97626 7.39069C3.97424 19.7359 3.97424 32.0791 3.97223 44.4242C3.97223 44.4883 3.97223 44.5523 3.97223 44.6685V44.6665Z" fill="#373737"/>
</svg>
