<svg width="42" height="56" viewBox="0 0 42 56" fill="none" xmlns="http://www.w3.org/2000/svg">
<path d="M2.79463 27.5387C2.79463 34.0437 2.79463 40.5469 2.79463 47.0518C2.79463 47.7405 2.78265 48.4292 2.81176 49.1161C2.86827 50.476 3.95564 51.761 5.25878 52.0591C5.56016 52.1271 5.86154 52.148 6.16806 52.148C15.0503 52.148 23.9325 52.148 32.8164 52.148C33.8541 52.148 34.8935 52.1306 35.9313 52.1515C37.6745 52.1864 39.2054 50.7009 39.2002 48.8075C39.1934 46.215 39.1985 43.6224 39.1985 41.0281C39.1985 36.5805 39.1985 32.1346 39.1985 27.6869C39.1985 26.9093 39.4828 26.4246 40.0633 26.1858C41.0068 25.7987 41.988 26.4682 41.988 27.5039C41.988 34.6243 42.0171 41.7447 41.9743 48.8633C41.9589 51.4576 40.7071 53.3406 38.3817 54.446C37.5563 54.8382 36.6779 54.9986 35.7737 54.9986C28.8608 55.0021 21.9495 55.0021 15.0366 55.0021C12.1358 55.0021 9.23325 55.0004 6.33245 55.0021C4.51731 55.0039 2.95046 54.3832 1.66788 53.0669C0.801402 52.1777 0.297957 51.0897 0.0890447 49.8588C0.0119868 49.4073 0 48.9522 0 48.4954C0.0034248 34.3994 -0.0034248 20.305 0.0102744 6.20893C0.0136992 3.56581 1.29115 1.70202 3.60974 0.560037C4.43682 0.152062 5.32556 0.00386526 6.23655 0.00386526C10.6323 0.000378293 15.028 0.000378293 19.422 0.00212178C20.2405 0.00212178 20.7663 0.371741 20.9478 1.05693C21.1824 1.94088 20.583 2.78473 19.6737 2.84749C19.547 2.85621 19.4186 2.85446 19.2902 2.85446C14.8876 2.85446 10.4867 2.85272 6.08415 2.85446C4.45737 2.85446 3.14739 3.96681 2.84087 5.59174C2.79635 5.82711 2.79463 6.06771 2.79463 6.30657C2.79463 10.4996 2.79463 14.6945 2.79463 18.8876C2.79463 21.7695 2.79463 24.6533 2.79463 27.5352V27.5387Z" fill="#373737"/>
<path d="M41.9935 10.6771C41.9935 13.2627 41.9935 15.8465 41.9935 18.4321C41.9935 19.9437 41.0037 21.1206 39.5396 21.3141C38.9574 21.3908 38.3854 21.2845 37.8768 20.9654C36.733 20.2488 35.6285 19.4712 34.5103 18.7146C34.274 18.5542 34.0359 18.3955 33.803 18.2299C33.7054 18.1601 33.6421 18.1462 33.5274 18.2299C32.3595 19.079 31.1745 19.9054 30.0118 20.7632C28.4569 21.9086 26.0699 20.9706 25.7188 19.0022C25.6229 18.4653 25.6623 17.9195 25.6623 17.3773C25.6623 12.5618 25.6589 7.74631 25.6657 2.93254C25.6674 1.71036 26.2308 0.822925 27.2994 0.271984C27.7737 0.0278958 28.2908 0 28.8148 0C32.0718 0.00174349 35.3271 0 38.5841 0.00174349C38.9882 0.00174349 39.394 -0.0156914 39.7947 0.0767134C41.0996 0.374849 41.9935 1.51335 41.9935 2.87849C41.9935 5.47803 41.9935 8.07757 41.9935 10.6771ZM39.2005 10.7207C39.2005 9.92392 39.2005 9.12715 39.2005 8.33212C39.2005 6.63745 39.1988 4.94278 39.2005 3.24986C39.2005 2.85932 39.2108 2.85757 38.8238 2.85757C35.4607 2.85757 32.0992 2.85932 28.7361 2.85234C28.522 2.85234 28.4604 2.90116 28.4621 3.12433C28.4689 6.44741 28.4672 9.77049 28.4672 13.0953C28.4672 14.797 28.4672 16.4986 28.4672 18.2002C28.4672 18.263 28.4398 18.3415 28.498 18.3833C28.5545 18.4234 28.6025 18.3606 28.6453 18.3293C29.9176 17.4052 31.1899 16.4812 32.4605 15.5536C33.0993 15.0864 33.9366 15.0288 34.5788 15.4804C35.5617 16.1708 36.5703 16.8177 37.5635 17.4924C38.0532 17.8254 38.5464 18.1549 39.0361 18.4879C39.1697 18.5786 39.2194 18.5629 39.2091 18.3885C39.1971 18.1654 39.1988 17.9405 39.1988 17.7156C39.1988 15.3845 39.1988 13.0535 39.1988 10.7207H39.2005Z" fill="#373737"/>
</svg>
