<svg width="58" height="58" viewBox="0 0 58 58" fill="none" xmlns="http://www.w3.org/2000/svg">
<path d="M29.7676 0.00173224C45.4083 0.531209 58.6623 13.43 57.9731 30.1628C57.3095 46.2384 44.4702 58.1548 28.8423 57.9954C11.4213 57.8231 -0.690533 43.5081 0.0305581 27.9364C0.828226 10.7061 14.8289 -0.157749 29.7676 0.00173224ZM9.92164 47.5143C11.9892 46.6276 13.9355 45.7983 15.8818 44.9498C17.7133 44.1588 19.5511 43.3933 21.3506 42.5385C22.2759 42.0983 22.729 41.2881 22.6907 40.2228C22.6588 39.3297 22.7098 38.4302 22.6779 37.5371C22.6652 37.282 22.5503 36.9822 22.3844 36.778C21.2804 35.4448 20.4572 33.9712 19.8957 32.3317C19.7872 32.0127 19.5638 31.681 19.3022 31.4641C17.7834 30.1946 17.1262 27.1581 17.9749 25.3656C18.1408 25.0147 18.211 24.5618 18.1472 24.179C17.7133 21.5827 17.2155 18.9991 17.6367 16.3453C18.2301 12.6135 19.9914 9.7492 23.6926 8.48611C25.1858 7.97577 26.8003 7.70147 28.3829 7.5675C32.4095 7.23578 35.3768 9.67903 38.459 11.7076C39.1226 12.1414 39.5757 13.0536 39.8756 13.8383C40.2777 14.9036 40.5329 16.0519 40.6861 17.1874C40.986 19.4393 40.4627 21.6273 40.0097 23.8218C39.9076 24.3258 39.8948 24.9445 40.0862 25.4038C40.8967 27.3814 40.284 30.0862 38.6249 31.5152C38.4207 31.6874 38.2675 31.9617 38.1782 32.2232C37.5911 33.901 36.7679 35.4448 35.6129 36.8035C35.447 37.0013 35.3577 37.3139 35.3513 37.5754C35.3194 38.4175 35.3513 39.2595 35.3321 40.1016C35.3002 41.2052 35.7469 42.0536 36.7041 42.5831C37.5528 43.0488 38.4271 43.489 39.3269 43.8462C42.2495 44.9881 45.3764 45.6707 47.9225 47.6291C57.0223 38.998 58.8601 22.2397 48.6308 11.0314C38.5611 0.0208708 20.6678 -0.489467 10.0174 10.3935C-0.652245 21.2956 0.541066 38.3473 9.92164 47.5143Z" fill="#373737"/>
</svg>
