<svg width="61" height="61" viewBox="0 0 61 61" fill="none" xmlns="http://www.w3.org/2000/svg">
<path d="M2.85452 30.2836C2.88769 33.4721 3.51263 36.7988 4.77125 40.0065C5.35605 41.4993 6.09621 42.9098 6.93063 44.2747C7.13313 44.6055 7.3234 44.9362 7.30246 45.3475C7.26929 45.967 6.89048 46.4657 6.29521 46.6547C5.72613 46.8367 5.10293 46.6547 4.75205 46.1437C4.39594 45.624 4.07823 45.0762 3.77099 44.525C2.46698 42.194 1.47545 39.7335 0.878435 37.1296C0.569454 35.7803 0.33379 34.4083 0.169698 33.0328C-0.0362896 31.3214 -0.0310526 29.5959 0.0859064 27.8704C0.248253 25.4799 0.700378 23.1489 1.42832 20.8704C2.25401 18.2822 3.43059 15.862 4.91265 13.587C6.45581 11.2193 8.3289 9.14728 10.4464 7.29055C12.7803 5.24307 15.4093 3.66458 18.2425 2.42559C20.5084 1.43335 22.8737 0.759604 25.3176 0.369357C27.4543 0.0281097 29.6032 -0.0716395 31.7591 0.0543595C35.1893 0.255608 38.4974 1.00285 41.657 2.36784C43.3363 3.09233 44.9633 3.92533 46.4803 4.95257C48.3306 6.20381 50.0501 7.6108 51.6072 9.22428C53.7317 11.4275 55.4721 13.895 56.8512 16.625C57.9929 18.8842 58.8151 21.2572 59.3475 23.7317C59.9183 26.3846 60.1103 29.0674 59.9532 31.7728C59.7874 34.6113 59.2218 37.3693 58.2704 40.0485C57.5285 42.138 56.5597 44.1137 55.3866 45.9915C55.2068 46.2802 55.0008 46.534 54.6918 46.6932C54.1716 46.961 53.5205 46.8665 53.0771 46.45C52.6424 46.0422 52.494 45.4035 52.7681 44.875C53.0649 44.3027 53.4227 43.762 53.7352 43.1968C55.2417 40.4808 56.249 37.5863 56.7639 34.5238C57.0869 32.6041 57.2352 30.6704 57.1288 28.7244C56.9437 25.3557 56.2071 22.1129 54.8332 19.0295C53.4681 15.9652 51.609 13.237 49.2349 10.864C46.7054 8.33529 43.8234 6.33331 40.5136 4.96482C38.9826 4.33132 37.4098 3.83958 35.7933 3.48433C34.2676 3.14833 32.7192 2.98034 31.1621 2.88759C29.605 2.79484 28.0618 2.90334 26.5187 3.09758C24.7957 3.31458 23.1094 3.69083 21.4615 4.23857C19.4452 4.90882 17.532 5.79956 15.7218 6.91605C14.1088 7.91004 12.6319 9.07903 11.2651 10.3898C9.47231 12.1083 7.94137 14.0367 6.66529 16.1682C5.06452 18.8405 3.98571 21.7139 3.37822 24.7677C3.03258 26.5054 2.8807 28.2624 2.85976 30.2871L2.85452 30.2836Z" fill="#373737"/>
<path d="M29.9365 60.0002C26.7611 59.9774 23.6696 59.4594 20.6618 58.4724C17.8373 57.5449 15.1909 56.2324 12.7714 54.493C11.8357 53.821 10.9472 53.0825 10.043 52.3667C9.60305 52.0185 9.34295 51.5792 9.40579 50.9895C9.44943 50.5817 9.6659 50.272 9.94171 49.9955C11.0362 48.8983 12.2163 47.906 13.4819 47.0083C16.1789 45.092 19.1099 43.6693 22.2887 42.7628C24.1845 42.2221 26.117 41.9001 28.0826 41.7653C30.7325 41.5833 33.351 41.7863 35.952 42.3306C38.4727 42.8591 40.8556 43.7515 43.1441 44.924C44.9753 45.862 46.6529 47.024 48.2257 48.34C48.8542 48.865 49.4494 49.432 50.0499 49.9885C50.3258 50.244 50.537 50.5467 50.5946 50.9335C50.6679 51.434 50.5195 51.868 50.1442 52.19C49.4337 52.799 48.7197 53.4045 47.9761 53.9715C46.1274 55.3802 44.1165 56.5124 41.9955 57.4574C40.4768 58.1347 38.9126 58.6859 37.2979 59.0762C35.6064 59.4839 33.8956 59.7972 32.1517 59.8829C31.4133 59.9197 30.6749 59.9617 29.9365 60.0019V60.0002ZM12.9233 51.0945C18.5548 55.5184 24.9107 57.5344 32.0156 57.0269C37.6278 56.6262 42.6553 54.6522 47.0596 51.0962C38.4047 43.0568 23.3972 41.7496 12.9215 51.0962L12.9233 51.0945Z" fill="#373737"/>
<path d="M30.022 14.2832C35.8316 14.2902 40.9551 18.9364 40.9516 25.2224C40.9481 31.4978 35.8927 36.207 29.9644 36.1685C24.0065 36.13 19.0715 31.4558 19.0523 25.2749C19.0331 18.7562 24.3486 14.2745 30.022 14.2832ZM29.9644 33.3143C34.3722 33.3581 38.0608 29.7601 38.0974 25.3151C38.1341 20.7424 34.4193 17.2827 30.3292 17.1479C25.4903 16.9869 21.999 20.8404 21.9064 25.0264C21.8069 29.5711 25.4833 33.3563 29.9644 33.3143Z" fill="#373737"/>
</svg>
