<svg width="26" height="26" viewBox="0 0 26 26" fill="none" xmlns="http://www.w3.org/2000/svg">
<path d="M9.18994 0.540039C4.36994 0.540039 0.439941 4.43004 0.439941 9.20004C0.439941 13.97 4.36994 17.86 9.18994 17.86C11.3799 17.86 13.3699 17.05 14.9099 15.73L15.4399 16.26V17.86L22.9399 25.28L25.4399 22.81L17.9399 15.39H16.3199L15.7899 14.86C17.1199 13.34 17.9399 11.36 17.9399 9.20004C17.9399 4.43004 14.0099 0.540039 9.18994 0.540039ZM9.18994 3.01004C12.6599 3.01004 15.4399 5.76004 15.4399 9.19004C15.4399 12.62 12.6599 15.37 9.18994 15.37C5.71994 15.37 2.93994 12.62 2.93994 9.19004C2.93994 5.76004 5.71994 3.01004 9.18994 3.01004Z" fill="#383737"/>
</svg>
